<?xml version="1.0"?>
<svg width="4000" height="4000" xmlns="http://www.w3.org/2000/svg" xmlns:svg="http://www.w3.org/2000/svg" version="1.1" xml:space="preserve">
 <g class="layer">
  <title>Layer 1</title>
  <path d="m2735.41,1889.62c-36.7,5.21 -72.51,10.37 -108.32,15.52c-34.18,4.9 -68.36,9.75 -102.52,14.69c-40.08,5.81 -80.14,11.74 -120.21,17.53c-34.51,4.99 -69.03,9.81 -103.53,14.78c-39.42,5.68 -78.83,11.47 -118.25,17.15c-34.17,4.93 -68.37,9.7 -102.54,14.65c-44.34,6.43 -88.67,13.03 -133.02,19.44c-33.84,4.89 -67.62,10.29 -101.57,14.24c-72.53,8.43 -131.31,-29.75 -158.22,-84.79c-1.03,-2.09 -2.24,-4.14 -2.89,-6.35c-2.64,-9.03 2.19,-16.9 11.54,-18.32c14.1,-2.14 28.26,-3.92 42.4,-5.85c33.54,-4.56 67.08,-9.17 100.63,-13.68c27.64,-3.7 55.3,-7.22 82.94,-10.93c31.9,-4.28 63.78,-8.73 95.68,-13.02c26.31,-3.53 52.65,-6.89 78.97,-10.43c33.55,-4.51 67.08,-9.16 100.63,-13.67c25.98,-3.5 51.99,-6.81 77.98,-10.31c33.22,-4.48 66.42,-9.1 99.64,-13.6c22.04,-2.98 44.12,-5.62 66.13,-8.82c21.35,-3.1 38.16,-21.56 39.54,-41.57c1.84,-26.73 -15.68,-45.04 -34.84,-49.33c-7.28,-1.63 -15.28,-1.39 -22.78,-0.51c-26.04,3.05 -52.01,6.72 -78,10.22c-28.28,3.81 -56.56,7.71 -84.84,11.55c-32.22,4.38 -64.44,8.78 -96.67,13.11c-25.99,3.5 -51.99,6.89 -77.97,10.39c-33.88,4.56 -67.75,9.21 -101.62,13.76c-32.25,4.32 -64.51,8.5 -96.75,12.84c-36.83,4.95 -73.65,10.02 -110.48,15.02c-30.26,4.1 -60.46,8.68 -90.8,12.13c-34.14,3.9 -58.35,-13.98 -67.73,-38.16c-15.48,-39.93 8.03,-81 49.7,-86.86c41.74,-5.88 83.57,-11.12 125.35,-16.75c51.96,-7.01 103.9,-14.23 155.86,-21.21c47.38,-6.36 94.78,-12.44 142.16,-18.8c52.29,-7.02 104.56,-14.28 156.85,-21.31c47.05,-6.31 94.12,-12.37 141.16,-18.69c52.3,-7.02 104.58,-14.21 156.86,-21.33c19.4,-2.64 38.87,-4.84 58.17,-8.08c22.34,-3.76 37.45,-22.06 38.43,-43.34c1.02,-22.3 -13.72,-43.46 -37.06,-47.57c-10.48,-1.84 -21.81,0.09 -32.62,1.42c-28.33,3.48 -56.58,7.59 -84.86,11.43c-32.22,4.39 -64.44,8.8 -96.68,13.12c-31.25,4.18 -62.52,8.22 -93.76,12.42c-32.9,4.43 -65.77,9.01 -98.66,13.45c-27.3,3.69 -54.62,7.26 -81.92,10.93c-32.56,4.38 -65.11,8.84 -97.68,13.2c-31.91,4.27 -63.83,8.4 -95.74,12.71c-42.42,5.73 -84.83,11.63 -127.25,17.34c-32.57,4.39 -65.17,8.55 -97.75,12.9c-31.9,4.26 -63.83,8.41 -95.68,12.99c-28.15,4.06 -52.78,-2.43 -70.54,-25.35c-33.18,-42.82 -9.53,-106.16 47.26,-113.61c52.33,-6.86 104.66,-13.67 156.96,-20.73c61.17,-8.26 122.3,-16.87 183.47,-25.13c47.36,-6.4 94.78,-12.42 142.15,-18.78c56.9,-7.64 113.77,-15.52 170.67,-23.18c42.1,-5.67 84.24,-11.09 126.35,-16.75c42.1,-5.66 84.17,-11.57 126.27,-17.22c36.51,-4.9 73.05,-9.59 109.58,-14.41c19.74,-2.6 39.44,-5.56 59.21,-7.84c23.32,-2.68 44.16,-22.57 42.31,-50.38c-1.49,-22.45 -20.05,-41.17 -44.69,-42.99c-1.59,-0.12 -3.22,0.32 -4.82,0.53c-45.07,6.01 -90.13,12.06 -135.21,18.02c-37.84,5.01 -75.71,9.83 -113.54,14.89c-36.84,4.94 -73.64,10.15 -110.47,15.1c-31.58,4.25 -63.2,8.22 -94.78,12.46c-37.5,5.05 -74.96,10.33 -112.45,15.39c-31.91,4.3 -63.85,8.35 -95.76,12.65c-38.15,5.14 -76.28,10.46 -114.43,15.61c-25.65,3.46 -51.33,6.72 -76.99,10.16c-33.88,4.54 -67.74,9.22 -101.63,13.74c-31.58,4.22 -63.19,8.22 -94.77,12.46c-32.57,4.38 -65.1,8.96 -97.66,13.4c-11.51,1.56 -23.02,3.11 -34.57,4.38c-16.2,1.79 -21.83,-1.64 -27.76,-16.32c-30.77,-76.22 17.24,-162.93 98.27,-176.66c18.94,-3.21 38.24,-4.32 57.37,-6.47c34.62,-3.88 69.23,-7.86 103.86,-11.71c15.5,-1.72 31.04,-3.18 46.55,-4.84c3.55,-0.38 7.07,-1.08 11.11,-1.72c-0.88,-10.53 -2.22,-20.37 -2.41,-30.23c-0.38,-18.9 -0.54,-37.81 -0.01,-56.7c0.76,-27.39 6.47,-54.05 13.63,-80.39c17.13,-63.05 47.05,-119.33 90.69,-167.93c41.02,-45.68 90.45,-79.26 148.82,-99.05c31.33,-10.62 63.52,-16.26 96.63,-18.21c59.84,-3.53 116.27,8.67 170.05,34.22c31.14,14.8 59.46,34.1 85.35,56.81c43.31,37.99 77.74,82.97 103.29,134.59c21.57,43.58 35.82,89.38 39.76,138.1c0.16,1.95 0.62,3.88 1.13,6.92c4.57,-0.21 9.1,-0.17 13.57,-0.66c22.75,-2.5 45.49,-5.17 68.24,-7.72c45.5,-5.09 90.98,-10.43 136.53,-15.06c17.83,-1.82 35.87,-3.38 53.73,-2.67c27.61,1.08 51.39,12.94 71.64,31.44c20.57,18.78 33.56,41.95 37.98,69.63c0.84,5.23 1.51,10.56 1.51,15.84c0.08,205.33 0.09,410.66 0.04,615.98c0,40.02 -30.65,76.35 -70.22,82.93c-23.57,3.92 -47.29,7.01 -70.93,10.5c-2.3,0.33 -4.58,0.84 -7.75,1.31m-410.41,-781.73c14.52,-1.47 29.06,-2.89 43.58,-4.41c11.55,-1.21 23.08,-2.62 34.63,-3.79c3.67,-0.37 6.73,-0.94 6.22,-5.68c-0.67,-6.26 -1.06,-12.57 -2.02,-18.78c-5.9,-37.78 -17.82,-73.54 -36.09,-107.18c-32.02,-58.99 -75.79,-106.61 -134.94,-139.25c-54.01,-29.79 -111.5,-38.58 -171.75,-25.97c-58.9,12.32 -106.98,43.33 -144.84,89.63c-54.15,66.23 -79.89,142.59 -78.01,228.11c0.28,13.14 1.36,26.34 4.91,39.44c4.33,-0.23 7.96,-0.23 11.55,-0.63c40.55,-4.52 81.09,-9.17 121.65,-13.63c26.05,-2.86 52.15,-5.35 78.2,-8.2c35.29,-3.86 70.56,-7.93 105.84,-11.85c19.78,-2.2 39.59,-4.21 59.38,-6.39c33.3,-3.66 66.6,-7.39 101.69,-11.42z" fill="#F37D2A" id="svg_2" opacity="1"/>
  <path d="m3222.05,2135.98c-15.31,-24.98 -34.29,-46.57 -58.69,-63.09c-27.8,-18.81 -58.27,-30.16 -91.84,-33.28c-54.12,-5.02 -102.12,10.13 -143.56,44.72c-38.85,32.43 -61.89,74.16 -68.34,124.67c-0.29,2.3 -0.99,4.55 -1.2,6.85c-0.21,2.29 -0.04,4.62 -0.04,8c-7.34,1.27 -14.37,2.68 -21.46,3.7c-53.23,7.64 -106.49,15.1 -159.71,22.82c-61.76,8.97 -123.47,18.23 -185.22,27.19c-48.62,7.06 -97.29,13.75 -145.92,20.82c-56.82,8.25 -113.6,16.8 -170.42,25.08c-39.42,5.74 -78.89,11.19 -118.32,16.83c-21.35,3.06 -42.69,6.21 -64.02,9.43c-3.81,0.57 -7.54,1.66 -10.68,2.37c-5.05,-14.74 -8.89,-29.21 -14.83,-42.76c-23.75,-54.18 -64.99,-87.97 -123.03,-98.79c-49.89,-9.29 -97.4,-0.51 -140.68,26.95c-30.94,19.65 -52.83,47.33 -68.52,80.07c-17.26,36.02 -22.66,74.18 -19.17,113.73c0.75,8.54 2.41,17 3.97,27.68c-2.36,-3.06 -3.71,-4.29 -4.45,-5.82c-23.36,-48.58 -46.65,-97.19 -69.97,-145.79c-23.9,-49.79 -47.83,-99.57 -71.73,-149.37c-23.32,-48.6 -46.61,-97.21 -69.92,-145.81c-24.04,-50.1 -48.09,-100.19 -72.12,-150.29c-23.32,-48.6 -46.61,-97.21 -69.93,-145.81c-32.09,-66.9 -64.19,-133.8 -96.29,-200.7c-19.14,-39.9 -38.28,-79.79 -57.39,-119.71c-33.18,-69.33 -66.29,-138.69 -99.5,-208c-17.4,-36.31 -35.02,-72.52 -52.42,-108.82c-25.89,-54.01 -51.65,-108.07 -77.52,-162.09c-12.79,-26.71 -25.73,-53.35 -38.57,-80.03c-22.09,-45.87 -44.15,-91.75 -66.24,-137.62c-0.7,-1.46 -1.51,-2.86 -2.53,-4.77c-4.08,0 -8.03,0 -11.99,0c-118.99,0 -237.98,-0.08 -356.98,0.14c-9.76,0.02 -18.22,-2.46 -26.43,-7.34c-24.08,-14.31 -38.04,-35.48 -39.78,-63.19c-2.15,-34.3 18.57,-65.76 51.15,-77.89c3.32,-1.24 7.13,-1.66 10.71,-1.66c159.99,-0.08 319.98,-0.14 479.98,0.03c18.93,0.02 33.19,9.19 41.48,26.24c8.43,17.34 16.06,35.07 23.93,52.68c39.86,89.28 79.74,178.55 119.51,267.87c35.85,80.5 71.5,161.09 107.37,241.59c38.05,85.35 76.33,170.6 114.38,255.96c35.88,80.49 71.55,161.07 107.41,241.57c32.21,72.3 64.6,144.52 96.83,216.81c31.01,69.56 61.88,139.17 92.86,208.74c16.51,37.07 33.1,74.09 49.66,111.13c3.14,7.02 3.15,6.9 11.28,5.77c41.1,-5.72 82.21,-11.3 123.3,-17.07c35.17,-4.95 70.29,-10.17 105.45,-15.12c31.23,-4.4 62.5,-8.5 93.73,-12.89c45.03,-6.34 90.03,-12.87 135.05,-19.21c29.58,-4.17 59.2,-8.09 88.78,-12.25c46.34,-6.52 92.66,-13.21 139,-19.73c40.1,-5.65 80.23,-11.12 120.34,-16.75c40.42,-5.68 80.82,-11.54 121.24,-17.19c40.77,-5.7 81.57,-11.14 122.34,-16.86c35.16,-4.93 70.28,-10.16 105.45,-15.11c30.57,-4.31 61.18,-8.32 91.75,-12.62c45.35,-6.38 90.68,-12.93 136.03,-19.34c29.25,-4.14 58.47,-8.63 87.8,-12.1c24.94,-2.96 48.55,10.66 58.74,34.18c13.09,30.21 26.62,60.22 39.99,90.31c1.62,3.64 3.19,7.34 5.25,10.73c6.08,9.97 9.05,20.64 7.52,33.16c-1.41,0.9 -2.14,0.98 -2.87,1.05z" fill="#F37D2A" id="svg_3" opacity="1"/>
  <path d="m1975.26,2691.29c0.53,4.8 0.85,8.79 0.85,12.78c0.02,130.67 0.02,261.33 0.02,391.99c-0.01,15.8 -0.02,15.81 -15.94,15.82c-20.33,0 -40.66,0.05 -61,-0.03c-10.28,-0.05 -11.01,-0.7 -11.03,-10.62c-0.08,-37.33 -0.55,-74.67 0.13,-111.99c0.59,-31.93 2.56,-63.83 3.93,-95.74c0.62,-14.29 1.23,-28.58 1.94,-42.87c0.55,-11.29 1.31,-22.57 1.85,-33.87c0.12,-2.49 -0.3,-5.01 -2.13,-7.82c-3.22,8.54 -6.54,17.05 -9.64,25.64c-26.84,74.27 -53.64,148.55 -80.47,222.82c-5.32,14.73 -10.66,29.45 -16.05,44.16c-3.55,9.67 -4.31,10.24 -14.39,10.29c-13.67,0.08 -27.34,-0.19 -41,0.1c-6.37,0.13 -9.54,-2.57 -11.64,-8.45c-16.5,-46.11 -33.24,-92.14 -49.87,-138.21c-18.33,-50.77 -36.61,-101.56 -54.94,-152.33c-0.51,-1.4 -1.42,-2.64 -3.15,-5.78c0,12.01 -0.06,21.82 0.05,31.64c0.03,2.31 0.89,4.6 0.97,6.91c0.84,23.62 1.41,47.25 2.43,70.86c0.94,21.92 2.33,43.83 3.49,65.75c0.17,3.32 0.2,6.66 0.2,9.99c0.01,34.67 0.01,69.33 0.01,104c0,1 0,2 -0.01,3c-0.09,12.18 -0.33,12.5 -12.16,12.53c-21.33,0.05 -42.66,0.02 -64,0.01c-1.33,0 -2.67,0.05 -4,-0.06c-6.39,-0.52 -7.32,-1.41 -7.76,-7.84c-0.18,-2.66 -0.08,-5.33 -0.08,-8c0,-130.66 0,-261.33 0,-391.99c0.01,-15.84 0.02,-15.85 15.9,-15.86c28.99,0 57.99,-0.03 86.99,0.02c11.58,0.02 11.5,0.12 15.46,11.32c30.66,86.7 61.34,173.39 92.06,260.08c3.41,9.62 7.05,19.16 11.07,30.03c4.21,-4.61 5.3,-9.12 6.78,-13.33c19.23,-54.69 38.39,-109.41 57.59,-164.12c12.7,-36.16 25.25,-72.36 38.22,-108.42c6.3,-17.51 4.29,-15.49 21.6,-15.55c28.67,-0.1 57.34,-0.11 86,0.08c3.79,0.02 7.57,1.46 11.72,3.06z" fill="#ffffff" id="svg_4" opacity="1" stroke="#000000" transform="matrix(1 0 0 1 0 0)"/>
  <path d="m2870.12,2932c0,-76.99 0,-152.98 0.01,-228.97c0,-14.88 0.02,-14.89 14.79,-14.9c21,-0.02 42,0.25 62.99,-0.14c7.26,-0.13 11.63,2.61 15.29,8.66c34,56.13 68.19,112.15 102.33,168.2c18.54,30.45 37.08,60.89 55.66,91.31c0.78,1.27 1.91,2.33 4.53,5.45c0.18,-6.17 0.39,-9.99 0.39,-13.82c0.02,-81.65 0.01,-163.31 0.02,-244.96c0,-14.68 0.02,-14.7 15,-14.7c20,-0.02 39.99,-0.04 59.99,0c12.84,0.03 12.98,0.15 12.99,12.73c0.04,44.99 0.02,89.99 0.02,134.98c0,86.99 0,173.97 -0.01,260.96c0,15.04 -0.02,15.06 -14.66,15.07c-21,0.02 -42,-0.23 -62.99,0.14c-6.86,0.12 -11.16,-2.31 -14.63,-8.09c-14.56,-24.28 -29.38,-48.41 -44.14,-72.58c-35.92,-58.87 -71.85,-117.73 -107.8,-176.57c-3.02,-4.93 -6.23,-9.74 -9.35,-14.61c-0.81,0.22 -1.61,0.45 -2.42,0.67c0,3.85 0,7.69 0,11.54c0,81.32 0,162.64 -0.01,243.96c0,15.52 -0.01,15.54 -15.19,15.54c-20.33,0.02 -40.67,0.05 -61,-0.01c-11.38,-0.04 -11.78,-0.41 -11.79,-11.88c-0.04,-55.66 -0.02,-111.32 -0.02,-167.98z" fill="#ffffff" id="svg_5" opacity="1" stroke="#000000"/>
  <path d="m1413.18,3029.08c-8.49,14.86 -17.53,28.45 -29.39,39.85c-30.52,29.32 -66.83,44.94 -109.26,47.46c-18.78,1.12 -37.24,0.27 -55.4,-3.75c-50.43,-11.17 -87.84,-39.97 -112.39,-85.35c-14.31,-26.42 -22.76,-54.78 -24.7,-84.71c-1.51,-23.21 -2.7,-46.6 -1.61,-69.79c2.12,-45.05 14.02,-87.38 41.31,-124.22c21.74,-29.36 50.44,-49.11 85.62,-58.82c46.35,-12.8 91.66,-9.81 135.07,11.65c31.15,15.4 54.11,39.34 70.32,69.93c14.86,28.06 23.22,57.94 25.74,89.58c3.16,39.67 3.06,79.16 -6.38,118.08c-4.16,17.19 -10.2,33.79 -18.93,50.09m-123.06,-268.63c-5.5,-1.32 -10.93,-3.2 -16.5,-3.86c-37.46,-4.46 -68.64,8.27 -87.1,44.09c-11.39,22.12 -15.73,45.87 -16.52,70.34c-0.59,18.3 -0.11,36.63 -0.12,54.94c-0.01,22.61 4.51,44.41 13.12,65.17c8.52,20.53 21.61,37.44 42.69,46.78c18.69,8.27 38.03,8.72 57.59,4.21c15.75,-3.64 28.42,-12.27 38.83,-24.71c11.19,-13.37 17.59,-28.91 21.89,-45.46c6.74,-25.98 7.29,-52.61 7.72,-79.21c0.1,-6.27 -1.56,-12.57 -1.49,-18.85c0.18,-16.49 -2.48,-32.58 -6.97,-48.26c-8.19,-28.59 -22.47,-52.67 -53.14,-65.18z" fill="#ffffff" id="svg_6" opacity="1" stroke="#000000"/>
  <path d="m2499.98,3108.29c-3.07,1.66 -5.76,3.42 -8.47,3.44c-25.98,0.2 -51.97,0.14 -77.96,0.06c-1.88,-0.01 -3.76,-0.73 -6.77,-1.35c1.13,-3.94 1.87,-7.41 3.1,-10.71c21.53,-57.74 43.17,-115.43 64.69,-173.17c18.03,-48.38 35.92,-96.81 53.9,-145.2c10.45,-28.1 20.93,-56.18 31.47,-84.25c3.33,-8.87 3.43,-8.93 13,-8.96c20.33,-0.07 40.66,0.22 60.98,-0.15c7.41,-0.14 11.45,2.35 14.04,9.5c10.69,29.43 21.89,58.67 32.89,87.99c25.26,67.36 50.55,134.71 75.77,202.1c14.36,38.37 28.6,76.78 42.85,115.19c0.78,2.11 1.17,4.36 2.04,7.73c-3.4,0.52 -6.17,1.29 -8.95,1.3c-24.99,0.1 -49.98,0.12 -74.97,0.02c-8.2,-0.03 -8.63,-0.39 -11.34,-8.38c-7.81,-23.03 -15.46,-46.12 -23.23,-69.16c-3.36,-9.94 -3.58,-10.13 -14.22,-10.14c-43.32,-0.04 -86.63,-0.05 -129.95,0c-10.34,0.02 -10.53,0.22 -13.99,10.47c-8.2,24.31 -16.34,48.63 -24.88,73.67m78.55,-234.78c-4.31,12.96 -8.66,25.91 -12.91,38.89c-4.31,13.16 -9.17,26.17 -12.81,39.56c10.41,2.79 93.78,2.52 101.24,0.02c-0.92,-11.01 -45.34,-142.09 -50.63,-149.45c-0.46,0.44 -1.18,0.79 -1.36,1.32c-7.7,22.71 -15.35,45.44 -23.53,69.66z" fill="#ffffff" id="svg_7" opacity="1" stroke="#000000" transform="matrix(1 0 0 1 0 0)"/>
  <path d="m2404.13,2828.01c0.8,17.49 -1.4,33.55 -6.96,49.14c-10.1,28.33 -29.38,48.83 -55.02,63.6c-23.88,13.76 -50.12,20.08 -77.38,21.01c-27.63,0.94 -55.31,0.3 -82.97,0.37c-13.63,0.03 -13.66,0.05 -13.67,14.03c-0.01,39.99 0,79.99 -0.01,119.98c0,2.67 0.12,5.34 -0.08,8c-0.46,6.3 -1.42,7.57 -7.92,7.62c-23.33,0.18 -46.66,0.19 -69.99,0.01c-6.94,-0.06 -7.8,-1.28 -8.2,-8.39c-0.15,-2.65 -0.05,-5.33 -0.05,-7.99c-0.01,-130.31 0,-260.63 -0.01,-390.94c0,-16.96 -0.82,-16.34 16.42,-16.33c48.66,0.02 97.31,-0.07 145.97,0.04c19.72,0.05 39.27,2.14 58.26,7.56c55.76,15.93 90.68,51.32 100.61,109.39c1.22,7.15 0.71,14.6 1,22.9m-91.51,-23.17c-9.65,-29.4 -32.85,-43.44 -59.96,-44.48c-24.93,-0.96 -49.92,-0.3 -74.89,-0.18c-8.66,0.04 -9.58,1.01 -9.6,9.98c-0.09,37.28 -0.09,74.56 0,111.84c0.03,8.82 1,9.94 9.76,9.8c27.92,-0.45 55.87,-0.5 83.74,-2.03c28.39,-1.55 49.34,-20.73 53.61,-47.8c1.89,-11.89 1.39,-23.9 -2.66,-37.13z" fill="#ffffff" id="svg_8" opacity="1" stroke="#000000" transform="matrix(1 0 0 1 0 0)"/>
  <path d="m662.14,2927.54c-0.01,-17.95 -0.63,-34.98 0.11,-51.95c1.6,-36.57 7.94,-72.14 25.37,-104.96c27.81,-52.39 71.36,-80.78 130.29,-87.03c26.65,-2.83 52.58,-0.63 78.08,6.48c54.19,15.11 89.07,50.1 104.45,104.19c2.9,10.2 4.31,20.83 6.31,31.29c0.3,1.53 0.04,3.17 0.04,5.58c-3.39,0.36 -6.27,0.93 -9.16,0.94c-22.33,0.07 -44.66,0.1 -66.99,0.01c-10.06,-0.03 -11.21,-1.1 -12.44,-11.36c-2.28,-19.12 -8.74,-36.22 -23.6,-49.26c-2.98,-2.61 -6.12,-5.37 -9.68,-6.95c-28.78,-12.75 -57.71,-14.72 -86.79,-0.7c-14.55,7.01 -24.23,18.75 -31.04,32.75c-9.59,19.74 -14.09,41.06 -14.78,62.82c-0.86,26.97 -1.05,54.02 0.05,80.96c0.91,22.31 4.5,44.41 15.06,64.71c12.57,24.18 32.04,37.51 59.5,39.15c18.81,1.13 37.12,0.14 54.64,-7.83c14.87,-6.77 24.7,-18.05 30.15,-33.01c2.95,-8.07 4.55,-16.67 6.33,-25.11c1.46,-6.94 1.99,-8.19 8.83,-8.25c23.66,-0.2 47.33,-0.2 70.99,-0.03c7.04,0.06 8.56,1.47 8.02,8.35c-0.59,7.6 -1.93,15.2 -3.65,22.63c-11.54,49.91 -41.84,83.79 -88.96,102.93c-19.31,7.84 -39.54,11.02 -60.34,12.53c-17.76,1.29 -35.23,0.44 -52.58,-2.49c-40.91,-6.92 -74.11,-26.84 -98.71,-60.54c-20.11,-27.55 -31.27,-58.6 -35.79,-92.18c-1.46,-10.88 -2.47,-21.81 -3.71,-33.67z" fill="#ffffff" id="svg_9" opacity="1" stroke="#000000"/>
  <path d="m3376.7,2703.29c25.01,54.6 49.67,108.52 74.38,162.42c1.33,2.92 3.05,5.66 5.66,10.46c3.21,-6.4 5.65,-10.95 7.81,-15.63c14.79,-32.07 29.5,-64.17 44.27,-96.24c10.45,-22.69 21.02,-45.33 31.37,-68.07c2.08,-4.55 4.34,-8.1 10.05,-8.08c28,0.1 56,0.06 83.99,0.14c1.24,0 2.48,0.64 4.33,1.15c-0.37,1.82 -0.35,3.51 -1.03,4.84c-21.44,41.81 -42.94,83.58 -64.45,125.35c-21.97,42.65 -43.89,85.33 -66.03,127.9c-3.64,7.01 -5.32,14.06 -5.28,21.98c0.23,42.33 0.11,84.66 0.1,127c0,2.99 -0.05,5.99 -0.13,8.99c-0.1,4.02 -2.18,6.16 -6.21,6.24c-4.66,0.09 -9.33,0.13 -13.99,0.13c-19.34,0.02 -38.67,0.06 -58,-0.02c-10.77,-0.04 -11.38,-0.6 -11.39,-11.27c-0.06,-43.33 -0.15,-86.66 0.07,-129.99c0.05,-8.24 -1.58,-15.62 -5.38,-22.96c-25.44,-49.12 -50.59,-98.38 -75.92,-147.55c-17.56,-34.06 -35.27,-68.04 -52.86,-102.07c-1.2,-2.31 -2.06,-4.8 -3.53,-8.31c3.15,-0.62 5.57,-1.49 7.99,-1.5c26.33,-0.1 52.66,0.01 78.99,-0.12c5.61,-0.03 9.7,1.41 11.46,7.3c0.75,2.52 2.24,4.82 3.73,7.91z" fill="#ffffff" id="svg_10" opacity="1" stroke="#000000"/>
  <path d="m1867.02,2509.26c-37.05,17.87 -74.25,20.21 -111.65,4.48c-41.58,-17.5 -67.58,-49.13 -77.01,-92.96c-8.39,-38.99 -0.79,-75.56 24.07,-107.41c22.04,-28.24 50.89,-45.27 86.8,-49.74c42.01,-5.22 78.6,7.02 108.61,36.24c25.02,24.35 37.87,54.71 38.64,90.21c0.85,38.57 -12.63,71.03 -39.98,97.57c-8.49,8.24 -19.16,14.23 -29.48,21.61z" fill="#F37D2A" id="svg_11" opacity="1"/>
  <path d="m2926.37,2200.67c16.1,-53.46 51.07,-86.18 105.02,-95.8c51.61,-9.2 104.77,12.4 134.27,62.2c28.18,47.59 23.66,106.58 -11.27,149.43c-38.42,47.12 -100.62,59.68 -151.6,37.83c-45,-19.28 -71.56,-53.76 -79.18,-102.46c-2.66,-17.01 -1.4,-33.75 2.76,-51.2z" fill="#F37D2A" id="svg_12" opacity="1"/>
  <path d="m3222.03,2136.47c0.75,-0.56 1.48,-0.64 2.76,-0.7c0.38,3.09 -0.68,3.6 -2.76,0.7z" fill="#B75D1F" id="svg_24" opacity="1"/>
 </g>

</svg>
